<svg xmlns="http://www.w3.org/2000/svg" id="Outline" viewBox="0 0 512 512">
    <g>
        <path d="M40,360c0,27.483,7.459,60.9,19.467,87.2C73.831,478.67,92.487,496,112,496c14.27,0,27.943-9.105,40-26.491C164.057,486.9,177.73,496,192,496c19.513,0,38.169-17.33,52.533-48.8.852-1.867,1.675-3.778,2.48-5.713a153.464,153.464,0,0,0,8.987,16.9V488a8,8,0,0,0,8,8H424a8,8,0,0,0,8-8V458.408C439.528,446.545,472,388.6,472,272c0-97.009-31.7-153.607-33.054-155.969A8,8,0,0,0,432,112H309.529l-5.6-41.081A8,8,0,0,0,300.8,65.6l-64-48a8,8,0,0,0-9.6,12.8l61.325,45.994L293.38,112H256a8,8,0,0,0-6.946,4.031C247.705,118.393,216,174.991,216,272c0,6.1.1,12.169.283,18.173A119.75,119.75,0,0,0,192,288c-11.081,0-20.463,1.058-28.579,3.246C166.747,277.157,172.965,264,184,264a8,8,0,0,0,0-16c-11.471,0-26.563,6.076-34.725,34.247A72.011,72.011,0,0,0,88,248a8,8,0,0,0-8,8,71.551,71.551,0,0,0,8.588,34.067C55.932,296.682,40,319.662,40,360ZM272,480V464H416v16ZM427.125,128a242.661,242.661,0,0,1,13.409,34.94q2,6.559,3.679,13.06H318.256l-6.545-48Zm-166.25,0h34.687l6.546,48H243.792c1.232-4.76,2.473-9.126,3.674-13.06A242.682,242.682,0,0,1,260.875,128ZM232,272a392.438,392.438,0,0,1,8.058-80h64.231l31.784,233.081a8,8,0,1,0,15.854-2.162L320.438,192H447.95A397.551,397.551,0,0,1,456,272c0,106.455-28.4,162.345-36.423,176H268.408a186.081,186.081,0,0,1-13.479-29.088C260.68,399.208,264,378.293,264,360c0-37.468-13.851-55.7-31.518-64.4C232.167,287.858,232,279.949,232,272Zm-88.67,39.33a56.135,56.135,0,0,1-46.66-46.66A56.135,56.135,0,0,1,143.33,311.33Zm-44.368-6.7A71.817,71.817,0,0,0,152,328a8,8,0,0,0,8-8c0-2.787.163-6.567.564-10.854C168.537,305.693,178.88,304,192,304c33.613,0,56,9.523,56,56,0,25.337-6.906,56.206-18.023,80.56C218.7,465.256,204.507,480,192,480c-10.772,0-22.489-10.506-32.992-29.583a8,8,0,0,0-14.016,0C134.489,469.494,122.772,480,112,480c-12.507,0-26.7-14.744-37.977-39.44C62.906,416.206,56,385.337,56,360c0-20.112,4.227-34.2,12.921-43.067C75.605,310.115,85.451,306.081,98.962,304.633Z"/>
    </g>
</svg>
