<svg viewBox="0 -54 512.00146 512" xmlns="http://www.w3.org/2000/svg">
    <g>
        <path d="m508.261719 13.40625c-4.90625-8.394531-13.640625-13.40625-23.363281-13.40625-9.199219 0-17.863282 4.78125-22.804688 12.511719-4.988281-7.859375-13.40625-12.511719-22.804688-12.511719h-.15625c-9.304687 0-17.84375 4.691406-22.835937 12.542969l-62.21875 97.847656c-13.640625-10.1875-29.929687-17.015625-47.644531-19.222656-16.722656-39.828125-56.117188-67.875-101.945313-67.875s-85.207031 28.050781-101.929687 67.871093c-49.625 6.179688-88.179688 48.546876-88.335938 99.78125-3.179687.933594-6.089844 2.652344-8.488281 5.074219-3.75 3.785157-5.7890625 8.808594-5.734375 14.140625.101562 9.914063.941406 25.742188 4.414062 44.164063 1.835938 9.726562 4.261719 19.425781 7.320313 28.855469.019531.0625.039063.121093.058594.179687 1.023437 3.140625 2.109375 6.234375 3.257812 9.273437.003907.015626.011719.035157.019531.050782l.035157.09375c2.195312 5.800781 4.800781 11.828125 7.527343 17.375 15.933594 32.453125 39.558594 57.191406 70.425782 73.675781 23.648437 12.625 50.824218 19.300781 78.589844 19.300781h112.28125c27.765624 0 54.945312-6.675781 78.589843-19.300781 16.3125-8.710937 31.132813-20.117187 43.574219-33.8125 6.328125-6.964844 12.03125-14.488281 17.085938-22.429687 2.59375-4.074219 5.015624-8.257813 7.273437-12.527344 1.511719-2.867188 2.953125-5.769532 4.316406-8.707032 3.296875-7.089843 6.160157-14.375 8.625-21.796874 3.359375-10.113282 5.761719-19.507813 7.738281-29.957032.019532-.097656.023438-.195312.039063-.292968 3.46875-18.410157 4.308594-34.234376 4.410156-44.144532.050781-5.332031-1.984375-10.351562-5.738281-14.140625-3.753906-3.792969-8.757812-5.882812-14.097656-5.882812h-20.429688l28.777344-46.265625c2.191406-3.523438 1.109375-8.152344-2.410156-10.34375-3.523438-2.191406-8.152344-1.109375-10.34375 2.410156l-33.710938 54.199219h-2.886718c-.125-11.507813-2.210938-22.546875-5.898438-32.832031l73.550781-116.148438c.027344-.050781.0625-.101562.089844-.152344.820313-1.359375 1.492187-2.769531 2.058594-4.203125l9.964843-15.832031c.023438-.039062.050782-.078125.074219-.121094 2.167969-3.59375 6.121094-5.828125 10.316407-5.828125 4.324218 0 8.214843 2.234375 10.398437 5.96875 2.160156 3.691407 2.21875 8.113281.167969 11.859375l-46.105469 74.128906c-2.191406 3.519532-1.113281 8.152344 2.410156 10.339844 3.519531 2.191406 8.152344 1.113282 10.339844-2.410156l46.207031-74.28125c.058594-.09375.113282-.1875.167969-.285156 4.765625-8.472656 4.683594-18.542969-.222656-26.933594zm-79.289063 7.199219c2.222656-3.496094 6.019532-5.585938 10.160156-5.585938h.15625c4.398438 0 8.316407 2.285157 10.480469 6.117188 1.613281 2.847656 1.992188 6.089843 1.144531 9.117187l-69.667968 110.667969c-4.347656-7.515625-9.636719-14.425781-15.703125-20.5625zm-49.265625 169.535156h-16.402343c-.601563-37.78125-31.5-68.332031-69.417969-68.332031-37.921875 0-68.820313 30.550781-69.421875 68.332031h-16.402344c.605469-46.820313 38.859375-84.730469 85.820312-84.730469 46.964844 0 85.21875 37.910156 85.824219 84.730469zm-85.820312-36.253906c-20.234375 0-36.75 16.164062-37.34375 36.253906h-17.058594c.601563-29.496094 24.765625-53.3125 54.402344-53.3125s53.800781 23.816406 54.402343 53.3125h-17.058593c-.59375-20.089844-17.113281-36.253906-37.34375-36.253906zm22.324219 36.253906h-44.652344c.585937-11.808594 10.375-21.234375 22.328125-21.234375 11.949219 0 21.738281 9.425781 22.324219 21.234375zm-111.722657-81.769531c8.117188 0 15.335938 3.835937 19.996094 9.773437-8.027344 7.625-14.8125 16.546875-19.996094 26.4375-5.1875-9.894531-11.976562-18.824219-20.011719-26.453125 4.660157-5.933594 11.894532-9.757812 20.011719-9.757812zm-31.628906.257812c-5.589844-3.917968-11.597656-7.269531-17.933594-10.007812 11.035157-15.5 29.128907-25.640625 49.5625-25.640625 20.433594 0 38.539063 10.132812 49.574219 25.632812-6.34375 2.742188-12.363281 6.097657-17.960938 10.023438-7.417968-9.296875-18.820312-15.285157-31.613281-15.285157-12.796875 0-24.214843 5.976563-31.628906 15.277344zm31.628906-70.316406c37.074219 0 69.273438 21.234375 85.089844 52.179688-7.164063.308593-14.136719 1.363281-20.84375 3.09375-13.425781-21.375-37.191406-35.625-64.246094-35.625-27.054687 0-50.828125 14.246093-64.257812 35.625-6.699219-1.730469-13.664063-2.785157-20.820313-3.09375 15.820313-30.941407 48.007813-52.179688 85.078125-52.179688zm-89.398437 67.097656c37.988281 0 70.261718 24.808594 81.539062 59.070313-2.253906 8.1875-3.496094 16.789062-3.59375 25.660156h-8.523437c-.601563-37.78125-31.503907-68.332031-69.421875-68.332031-37.917969 0-68.820313 30.550781-69.421875 68.332031h-16.398438c.605469-46.820313 38.859375-84.730469 85.820313-84.730469zm0 48.476563c-20.230469 0-36.746094 16.164062-37.34375 36.253906h-17.058594c.601562-29.496094 24.765625-53.3125 54.402344-53.3125 29.636718 0 53.800781 23.816406 54.402344 53.3125h-17.054688c-.597656-20.089844-17.113281-36.253906-37.347656-36.253906zm22.328125 36.253906h-44.652344c.585937-11.808594 10.375-21.234375 22.324219-21.234375 11.949218 0 21.742187 9.425781 22.328125 21.234375zm218.027343 180.4375c-21.476562 11.46875-46.207031 17.53125-71.515624 17.53125h-112.28125c-25.304688 0-50.035157-6.0625-71.515626-17.53125-17.164062-9.164063-31.871093-21.175781-44.042968-35.914063h343.398437c-12.167969 14.738282-26.878906 26.75-44.042969 35.914063zm80.300782-165.417969c1.296875 0 2.515625.503906 3.425781 1.425782.90625.917968 1.402344 2.136718 1.386719 3.425781-.082032 8.257812-.710938 20.882812-3.117188 35.679687h-266.304687c-4.148438 0-7.511719 3.363282-7.511719 7.511719s3.363281 7.507813 7.511719 7.507813h263.355469c-1.984376 8.578124-4.59375 17.578124-8.027344 26.664062-4.324219 11.433594-9.492188 21.996094-16.0625 32.269531h-365.222656c-4.40625-6.886719-8.40625-14.398437-11.6875-21.683593-.078126-.171876-.15625-.347657-.234376-.519532-1.460937-3.277344-2.839843-6.628906-4.140624-10.066406-3.433594-9.085938-6.042969-18.085938-8.027344-26.664062h115.875c4.148437 0 7.507812-3.359376 7.507812-7.507813s-3.359375-7.511719-7.507812-7.511719h-118.824219c-2.40625-14.796875-3.035156-27.421875-3.121094-35.679687-.011719-1.292969.480469-2.507813 1.390625-3.425781.910156-.917969 2.128906-1.425782 3.425782-1.425782zm0 0"/>
    </g>
</svg>
