<svg xmlns="http://www.w3.org/2000/svg" viewBox="0 0 64 64">
    <g>
        <path d="M61,50H46.89a6.978,6.978,0,0,0,2.037-4.047A10,10,0,0,0,49,26.051V23a1,1,0,0,0-1-1H14a1,1,0,0,0-1,1V45a6.977,6.977,0,0,0,2.11,5H3a1,1,0,0,0-1,1v2a5.006,5.006,0,0,0,5,5H8v3a1,1,0,0,0,1,1H55a1,1,0,0,0,1-1V58h1a5.006,5.006,0,0,0,5-5V51A1,1,0,0,0,61,50ZM49,33.184a2.982,2.982,0,0,1,0,5.632ZM49,40.9a5,5,0,0,0,0-9.8V28.062a8,8,0,0,1,0,15.876ZM23,24H47v2H23Zm-8,0h6v2H15Zm9,10v8H20V34ZM15,45V28h6v4H19a1,1,0,0,0-1,1V43a1,1,0,0,0,1,1h6a1,1,0,0,0,1-1V33a1,1,0,0,0-1-1H23V28H47V45a5.006,5.006,0,0,1-5,5H20A5.006,5.006,0,0,1,15,45ZM54,60H10V58H54Zm6-7a3,3,0,0,1-3,3H7a3,3,0,0,1-3-3V52H60Z"/>
        <path d="M29,17h2a2.863,2.863,0,0,1,.8-1.9A4.788,4.788,0,0,0,33,12a4.788,4.788,0,0,0-1.2-3.1A2.863,2.863,0,0,1,31,7a2.867,2.867,0,0,1,.8-1.9A4.79,4.79,0,0,0,33,2H31a2.867,2.867,0,0,1-.8,1.9A4.79,4.79,0,0,0,29,7a4.788,4.788,0,0,0,1.2,3.1A2.863,2.863,0,0,1,31,12a2.863,2.863,0,0,1-.8,1.9A4.788,4.788,0,0,0,29,17Z"/>
        <path d="M23,20h2a2.863,2.863,0,0,1,.8-1.9,4.6,4.6,0,0,0,0-6.2A2.863,2.863,0,0,1,25,10a2.867,2.867,0,0,1,.8-1.9A4.79,4.79,0,0,0,27,5H25a2.867,2.867,0,0,1-.8,1.9A4.79,4.79,0,0,0,23,10a4.788,4.788,0,0,0,1.2,3.1A2.863,2.863,0,0,1,25,15a2.863,2.863,0,0,1-.8,1.9A4.788,4.788,0,0,0,23,20Z"/>
        <path d="M35,20h2a2.863,2.863,0,0,1,.8-1.9,4.6,4.6,0,0,0,0-6.2A2.863,2.863,0,0,1,37,10a2.867,2.867,0,0,1,.8-1.9A4.79,4.79,0,0,0,39,5H37a2.867,2.867,0,0,1-.8,1.9A4.79,4.79,0,0,0,35,10a4.788,4.788,0,0,0,1.2,3.1A2.863,2.863,0,0,1,37,15a2.863,2.863,0,0,1-.8,1.9A4.788,4.788,0,0,0,35,20Z"/>
        <path d="M45,45V39H43v6a1,1,0,0,1-1,1H39v2h3A3,3,0,0,0,45,45Z"/>
        <rect x="35" y="46" width="2" height="2"/>
    </g>
</svg>
