<svg viewBox="-54 1 511 511.99982" xmlns="http://www.w3.org/2000/svg">
    <g>
        <path d="m108.300781 404.675781c10.738281 10.605469 25.234375 16.535157 40.328125 16.496094h.554688c31.820312-.308594 57.367187-26.351563 57.058594-58.171875-.144532-15.265625-6.347657-29.851562-17.242188-40.550781l-35.035156-34.382813c-10.746094-10.597656-25.238282-16.523437-40.332032-16.484375h-.5625c-15.261718.105469-29.851562 6.300781-40.523437 17.210938-22.238281 22.726562-21.894531 59.164062.769531 81.46875zm4.941407-116.054687h.390624c10.621094-.023438 20.824219 4.148437 28.382813 11.605468l35.03125 34.375c11.589844 11.40625 15.261719 28.625 9.324219 43.765626-9.476563-22.660157-29.894532-38.886719-54.109375-43.007813-18.574219-3.035156-34.230469-15.515625-41.324219-32.945313l-2.101562-5.121093c6.957031-5.5 15.539062-8.539063 24.40625-8.644531zm-36.378907 23.777344c9.90625 21.117187 29.574219 36.007812 52.59375 39.804687 20.714844 3.523437 37.574219 18.617187 43.355469 38.820313l1.128906 3.96875c-7.042968 5.78125-15.84375 8.996093-24.953125 9.113281h-.394531c-10.605469.03125-20.792969-4.128907-28.347656-11.570313l-35.035156-34.367187c-12.128907-11.972657-15.464844-30.257813-8.347657-45.746094zm0 0"/>
        <path d="m231.855469 196.265625h17.066406v17.066406h-17.066406zm0 0"/>
        <path d="m197.722656 196.265625h17.066406v17.066406h-17.066406zm0 0"/>
        <path d="m163.589844 196.265625h17.066406v17.066406h-17.066406zm0 0"/>
        <path d="m342.789062 0h-298.667968c-4.710938 0-8.53125 3.820312-8.53125 8.535156v33.390625l-34.007813 195.546875c-.085937.484375-.128906.972656-.125 1.460938l-.957031 214.476562c.78125 32.472656 27.25 58.4375 59.734375 58.589844h333.753906c1.175781-.003906 2.339844-.253906 3.414063-.734375.238281-.101563.417968-.308594.648437-.433594.8125-.417969 1.546875-.96875 2.175781-1.628906.066407-.078125.171876-.105469.238282-.179687.214844-.328126.40625-.671876.574218-1.023438.339844-.5.625-1.035156.851563-1.597656.183594-.574219.300781-1.164063.351563-1.765625.121093-.382813.21875-.773438.28125-1.167969v-257.964844c.019531-4.84375-.578126-9.671875-1.785157-14.363281l-30.292969-177.160156c11.027344-15.207031 7.640626-36.472657-7.566406-47.503907-5.839844-4.234374-12.875-6.5039058-20.089844-6.476562zm0 17.066406c9.425782 0 17.066407 7.640625 17.066407 17.066406 0 9.425782-7.640625 17.066407-17.066407 17.066407-9.425781 0-17.066406-7.640625-17.066406-17.066407 0-9.425781 7.640625-17.066406 17.066406-17.066406zm-136.535156 0h107.144532c-3.070313 5.167969-4.707032 11.058594-4.742188 17.066406h-102.402344zm-51.199218 0h34.132812v17.066406h-34.132812zm0 34.132813h34.132812v56.429687l-14.367188-4.792968c-1.753906-.585938-3.644531-.585938-5.394531 0l-14.371093 4.792968zm-102.398438-34.132813h85.332031v17.066406h-85.332031zm213.332031 477.867188h-205.765625c-20.222656-.117188-37.617187-14.335938-41.753906-34.132813h247.519531zm0-51.199219h-248.378906l.914063-196.269531h247.464843zm1.355469-213.335937h-247.210938l31.164063-179.199219h86.691406v68.269531c0 4.710938 3.820313 8.53125 8.53125 8.535156.917969 0 1.828125-.148437 2.699219-.4375l22.902344-7.683594 22.90625 7.683594c.867187.285156 1.777344.433594 2.695312.433594 4.710938 0 8.53125-3.820312 8.53125-8.53125v-68.269531h92.253906zm15.710938 9.269531 32.257812-185.464844c2.792969 3.789063 6.335938 6.960937 10.410156 9.320313v384.851562l-42.667968 36.574219zm14.507812 255.265625 36.691406-31.429688 36.695313 31.429688zm86.511719-260.199219c.914062 3.515625 1.378906 7.136719 1.382812 10.769531v239.410156l-42.667969-36.574218v-380.074219c4.242188-.019531 8.441407-.835937 12.382813-2.40625zm0 0"/>
    </g>
</svg>
