<svg id="Layer_1" enable-background="new 0 0 511.996 511.996" viewBox="0 0 511.996 511.996" xmlns="http://www.w3.org/2000/svg">
    <g>
        <path d="m462.13 121.657h-2.913c8.252-26.057.694-54.394-19.306-72.277-8.752-7.825-17.775-11.793-26.82-11.793-4.477 0-8.938.551-13.264 1.623-5.957-20.352-23.405-35.842-45.287-38.739-23.224-3.065-45.483 9.13-55.83 29.306-5.831-1.924-11.955-2.918-18.115-2.918-.075 0-.15-.002-.227 0-6.599 0-13.13 1.107-19.315 3.247-7.985-15.996-23.386-27.209-41.7-29.635-23.232-3.071-45.484 9.13-55.83 29.306-5.832-1.924-11.955-2.918-18.115-2.918-.077.001-.152.005-.231 0-23.792 0-45.152 14.434-54.323 35.905-13.088.944-23.269 5.538-30.316 13.689-8.772 10.149-12.29 24.994-10.671 45.204h-.002c-5.523 0-10 4.478-10 10v63.68c0 5.523 4.477 10 10 10h25.814l17.481 267.459c1.426 21.981 19.799 39.2 41.828 39.2h253.331c22.029 0 40.402-17.219 41.827-39.195l17.48-267.464h14.505c5.522 0 10-4.477 10-10v-63.68c-.001-5.522-4.478-10-10.001-10zm-349.013 349.839-17.394-266.159h97.061v97.42c-21.996 11.018-35.703 27.366-35.703 45.909s13.707 34.892 35.703 45.91v97.42h-57.797c-11.517 0-21.124-9.003-21.87-20.5zm197.404-266.159v89.579c-14.508-4.346-31.105-6.786-48.868-6.786s-34.361 2.44-48.869 6.786v-89.579zm13.291 170.245c-16.438 8.783-38.513 13.621-62.159 13.621-23.647 0-45.722-4.838-62.16-13.621-14.243-7.611-22.412-17.422-22.412-26.916 0-9.493 8.169-19.304 22.412-26.915 16.438-8.783 38.513-13.621 62.16-13.621 23.646 0 45.722 4.838 62.159 13.621 14.243 7.611 22.412 17.422 22.412 26.915 0 9.494-8.169 19.305-22.412 26.916zm-111.028 26.835c14.508 4.346 31.105 6.786 48.869 6.786 17.763 0 34.36-2.44 48.868-6.786v89.579h-97.737zm197.403 69.084c-.745 11.492-10.352 20.495-21.869 20.495h-57.797v-97.42c21.996-11.018 35.703-27.367 35.703-45.91s-13.707-34.891-35.703-45.909v-97.42h97.061zm41.943-286.164h-392.264v-43.68h150.892c5.523 0 10-4.477 10-10 0-5.522-4.477-10-10-10h-140.81c-1.403-15.104.545-26.136 5.722-32.125 4.043-4.678 10.716-6.951 20.402-6.951.067 0 .135-.001.202-.002.183-.006.351.003.494.02 4.903.589 9.48-2.487 10.809-7.231 4.705-16.788 20.164-28.509 37.641-28.509.051.002.102 0 .152 0 6.563 0 13.038 1.709 18.731 4.947 2.693 1.53 5.942 1.727 8.801.532 2.858-1.195 5.001-3.646 5.802-6.639 4.486-16.754 20.834-27.672 38.026-25.401 14.14 1.873 25.542 12.003 29.05 25.809.775 3.05 2.941 5.558 5.846 6.768 2.905 1.211 6.212.982 8.922-.615 5.996-3.533 12.849-5.4 19.859-5.4h.149c6.563 0 13.037 1.709 18.731 4.947 2.693 1.53 5.945 1.726 8.801.532 2.858-1.194 5.001-3.646 5.802-6.639 4.486-16.754 20.826-27.672 38.027-25.401 16.753 2.219 29.406 16.07 30.086 32.937.139 3.436 2.034 6.56 5.017 8.271 2.985 1.711 6.637 1.767 9.673.153 5.078-2.702 10.595-4.072 16.397-4.072 3.978 0 8.516 2.255 13.489 6.702 14.054 12.565 19.389 32.525 13.675 50.997l-2.944 6.371h-136.071c-5.522 0-10 4.478-10 10 0 5.523 4.478 10 10 10h150.891z"/>
        <path d="m255.818 141.657c-4.185 0-8.003-2.701-9.415-6.636-1.39-3.874-.194-8.328 2.947-10.986 3.288-2.783 8.081-3.117 11.741-.864 3.499 2.154 5.337 6.411 4.528 10.435-.93 4.62-5.082 8.051-9.801 8.051z"/>
    </g>
</svg>
